<svg width="1108" height="92" viewBox="0 0 1108 92" fill="none" xmlns="http://www.w3.org/2000/svg">
<path d="M0.608 1.39999H85.984C90.336 1.39999 94.304 2.46666 97.888 4.6C101.557 6.648 104.459 9.50666 106.592 13.176C108.725 16.76 109.792 20.728 109.792 25.08C109.792 29.2613 108.768 33.2293 106.72 36.984C104.672 40.7387 101.941 43.768 98.528 46.072C101.941 48.4613 104.672 51.576 106.72 55.416C108.768 59.1707 109.792 63.1387 109.792 67.32C109.792 71.5867 108.725 75.5547 106.592 79.224C104.459 82.808 101.557 85.6667 97.888 87.8C94.304 89.9333 90.336 91 85.984 91H0.608V1.39999ZM47.456 42.488C50.528 42.488 53.344 41.7627 55.904 40.312C58.5493 38.776 60.5973 36.728 62.048 34.168C63.584 31.5227 64.352 28.7067 64.352 25.72C64.352 22.648 63.584 19.832 62.048 17.272C60.5973 14.6267 58.5493 12.536 55.904 11C53.344 9.464 50.528 8.696 47.456 8.696H45.536V42.36C45.9627 42.4453 46.6027 42.488 47.456 42.488ZM47.456 83.576C50.528 83.576 53.344 82.8507 55.904 81.4C58.5493 79.864 60.5973 77.816 62.048 75.256C63.584 72.6107 64.352 69.752 64.352 66.68C64.352 63.6933 63.584 60.92 62.048 58.36C60.5973 55.7147 58.5493 53.6667 55.904 52.216C53.344 50.68 50.528 49.912 47.456 49.912H45.536V83.448C45.9627 83.5333 46.6027 83.576 47.456 83.576ZM117.459 1.39999H162.387V83.32H211.027V91H117.459V1.39999ZM249.971 1.39999H287.347L327.027 91H278.643L265.203 61.304H237.043L225.523 91H216.179L249.971 1.39999ZM261.619 53.496L249.971 27.512L239.859 53.496H261.619ZM332.084 1.39999H373.812V91H332.084V1.39999ZM448.668 33.528C458.823 36.2587 466.417 39.8853 471.452 44.408C476.487 48.8453 479.004 54.648 479.004 61.816C479.004 67.5333 477.212 72.6533 473.628 77.176C470.044 81.6987 464.753 85.24 457.756 87.8C450.844 90.36 442.439 91.64 432.54 91.64C420.849 91.64 410.524 90.1467 401.564 87.16C392.689 84.088 385.735 80.376 380.7 76.024L384.924 70.264C389.361 73.7627 394.951 76.7493 401.692 79.224C408.433 81.6987 415.687 82.936 423.452 82.936C428.487 82.936 432.284 82.2107 434.844 80.76C437.489 79.3093 438.812 77.2613 438.812 74.616C438.812 70.008 434.247 66.424 425.116 63.864L408.476 59C399.431 56.2693 392.433 52.472 387.484 47.608C382.62 42.744 380.188 36.984 380.188 30.328C380.188 24.7813 381.937 19.7467 385.436 15.224C388.935 10.7013 394.012 7.16 400.668 4.6C407.409 1.95466 415.473 0.631996 424.86 0.631996C433.82 0.631996 442.055 1.656 449.564 3.70399C457.159 5.75199 463.345 8.22666 468.124 11.128L463.9 17.016C459.889 14.712 455.068 12.7493 449.436 11.128C443.889 9.50667 438.044 8.696 431.9 8.696C426.524 8.696 422.385 9.54933 419.484 11.256C416.668 12.8773 415.26 15.1387 415.26 18.04C415.26 20.2587 416.327 22.2213 418.46 23.928C420.593 25.5493 424.647 27.1707 430.62 28.792L448.668 33.528ZM485.459 1.39999H578.515V8.952H530.515V42.104H554.067V49.784H530.515V83.32H578.515V91H485.459V1.39999ZM638.283 1.39999H681.803L711.755 69.112L736.971 1.39999H756.171L785.611 67.576L810.187 1.39999H820.043L786.251 91H747.467L728.907 49.016L713.035 91H677.963L638.283 1.39999ZM830.346 1.39999H867.722L907.402 91H859.018L845.578 61.304H817.418L805.898 91H796.554L830.346 1.39999ZM841.994 53.496L830.346 27.512L820.234 53.496H841.994ZM912.459 1.39999H950.091L987.467 46.2V1.39999H995.147V91H965.067L920.267 31.352V91H912.459V1.39999ZM1002.33 46.072C1002.33 30.968 1006.05 19.7467 1013.47 12.408C1018.25 7.62933 1023.58 4.472 1029.47 2.936C1035.36 1.4 1043.08 0.631996 1052.64 0.631996C1061.51 0.631996 1068.64 1.272 1074.01 2.55199C1079.48 3.74666 1083.96 6.34933 1087.45 10.36C1090.36 13.688 1092.62 17.7413 1094.24 22.52C1095.94 27.2133 1096.93 31.8213 1097.18 36.344H1089.89C1089.54 32.504 1088.61 28.5787 1087.07 24.568C1085.62 20.472 1083.32 16.9733 1080.16 14.072C1077 11.0853 1072.99 9.592 1068.13 9.592C1063.6 9.592 1059.85 11.5973 1056.86 15.608C1054.3 19.1067 1052.47 23.7573 1051.36 29.56C1050.33 34.68 1049.82 40.184 1049.82 46.072C1049.82 55.7147 1051.02 63.7787 1053.41 70.264C1056.56 78.5413 1061.47 82.68 1068.13 82.68V47.224H1107.29V91C1095.01 91 1081.1 91.1707 1065.57 91.512L1052.64 91.64C1043.25 91.64 1035.61 90.744 1029.73 88.952C1023.92 87.0747 1018.93 84.0453 1014.75 79.864C1006.47 71.5867 1002.33 60.3227 1002.33 46.072Z" fill="black"/>
</svg>
